<svg viewBox="0 0 16 15" fill="none" xmlns="http://www.w3.org/2000/svg">
<path d="M15.7143 7.49286L13.9714 5.5L14.2143 2.86429L11.6357 2.27857L10.2857 0L7.85714 1.04286L5.42857 0L4.07857 2.27857L1.5 2.85714L1.74286 5.5L0 7.49286L1.74286 9.48571L1.5 12.1286L4.07857 12.7143L5.42857 15L7.85714 13.95L10.2857 14.9929L11.6357 12.7143L14.2143 12.1286L13.9714 9.49286L15.7143 7.49286ZM12.8929 8.55L12.4929 9.01429L12.55 9.62143L12.6786 11.0143L11.3214 11.3214L10.7214 11.4571L10.4071 11.9857L9.7 13.1857L8.42857 12.6357L7.85714 12.3929L7.29286 12.6357L6.02143 13.1857L5.31429 11.9929L5 11.4643L4.4 11.3286L3.04286 11.0214L3.17143 9.62143L3.22857 9.01429L2.82857 8.55L1.90714 7.5L2.82857 6.44286L3.22857 5.97857L3.16429 5.36429L3.03571 3.97857L4.39286 3.67143L4.99286 3.53571L5.30714 3.00714L6.01429 1.80714L7.28572 2.35714L7.85714 2.6L8.42143 2.35714L9.69286 1.80714L10.4 3.00714L10.7143 3.53571L11.3143 3.67143L12.6714 3.97857L12.5429 5.37143L12.4857 5.97857L12.8857 6.44286L13.8071 7.49286L12.8929 8.55Z" fill="#912338"/>
<path d="M12.8929 8.55L12.4929 9.01429L12.55 9.62143L12.6786 11.0143L11.3214 11.3214L10.7214 11.4571L10.4071 11.9857L9.7 13.1857L8.42857 12.6357L7.85714 12.3929L7.29286 12.6357L6.02143 13.1857L5.31429 11.9929L5 11.4643L4.4 11.3286L3.04286 11.0214L3.17143 9.62143L3.22857 9.01429L2.82857 8.55L1.90714 7.5L2.82857 6.44286L3.22857 5.97857L3.16429 5.36429L3.03571 3.97857L4.39286 3.67143L4.99286 3.53571L5.30714 3.00714L6.01429 1.80714L7.28572 2.35714L7.85714 2.6L8.42143 2.35714L9.69286 1.80714L10.4 3.00714L10.7143 3.53571L11.3143 3.67143L12.6714 3.97857L12.5429 5.37143L12.4857 5.97857L12.8857 6.44286L13.8071 7.49286L12.8929 8.55Z" fill="#912338"/>
<path d="M6.49261 8.75L4.83546 7.08572L3.77832 8.15L6.49261 10.8714L11.7355 5.61429L10.6783 4.55L6.49261 8.75Z" fill="white"/>
</svg>
